<?xml version="1.0" encoding="UTF-8"?>
<svg id="Layer_2" data-name="Layer 2" xmlns="http://www.w3.org/2000/svg" viewBox="0 0 161.07 206.25">
  <defs>
    <style>
      .cls-1 {
        fill: #e3f1ce;
      }

      .cls-1, .cls-2 {
        stroke-width: 0px;
      }

      .cls-2 {
        fill: #1d3a28;
      }
    </style>
  </defs>
  <g id="Layer_1-2" data-name="Layer 1">
    <path class="cls-2" d="M80.96.47L81.16,0c.02.16.03.31.05.47h79.86s-.04,2.82-.04,2.82c0,.07,0,.14,0,.22l-1.59,125.09c-.04,3.07-4.12,4.11-5.62,1.43L90,15.78l-7.32-10.81,76.59,177.82h-5.43c-47.35,0-66.8-49.14-72.98-100.61-6.19,51.47-25.63,100.61-72.98,100.61H2.45L80.12,2.42l-9.04,13.36L7.25,130.02c-1.5,2.68-5.58,1.65-5.62-1.43L.04,3.51c0-.07,0-.14,0-.22l-.04-2.82h80.49c0-.07.01-.13.02-.2,0-.09.02-.18.03-.27l.2.47h.22Z"/>
    <path class="cls-1" d="M78.37,156.69c.66-.42,1.49-.42,2.15,0l71.95,45.88c1.69,1.08.92,3.69-1.08,3.69H7.5c-2,0-2.76-2.61-1.08-3.69l71.95-45.88Z"/>
  </g>
</svg>