<svg width="415" height="471" viewBox="0 0 415 471" fill="none" xmlns="http://www.w3.org/2000/svg">
<path fill-rule="evenodd" clip-rule="evenodd" d="M209.11 1.21053C209.067 0.806048 209.023 0.402606 208.979 0.000170576L208.458 1.21053L207.891 1.21053L207.37 0.000201234C207.326 0.402606 207.283 0.806048 207.239 1.21053L5.05121e-05 1.21055L0.0434773 4.03361C0.0393574 4.10471 0.0377095 4.17649 0.038625 4.24882L4.41396 348.804C4.45296 351.876 8.53451 352.911 10.0327 350.23L183.012 40.6367L206.287 6.25267L6.29163 470.66L20.2701 470.66C142.173 470.66 192.241 344.136 208.175 211.604C224.111 344.136 274.184 470.66 396.1 470.66L410.08 470.66L212.879 12.7909L231.729 40.6371L404.707 350.23C406.206 352.911 410.287 351.876 410.326 348.804L414.701 4.24884C414.702 4.17654 414.701 4.10483 414.697 4.03378L414.74 1.21063L209.7 1.21053L209.11 1.21053Z" fill="#1D3A28"/>
</svg>
