<svg width="181" height="35" viewBox="0 0 181 35" fill="none" xmlns="http://www.w3.org/2000/svg">
<g clip-path="url(#clip0_173_510)">
<path d="M135.417 16.0013C134.742 14.2514 133.099 14.32 131.302 14.3592C130.834 14.3298 130.139 14.4671 129.845 14.0627C129.451 13.423 129.342 11.9035 128.978 11.031C126.351 2.13215 117.064 -0.661769 112.023 6.92103C110.808 8.65131 109.964 10.8472 109.517 12.9868C109.432 13.3078 109.363 13.6877 109.128 13.9083C108.282 14.3078 106.322 14.0063 105.382 14.0749C104.644 14.0455 104.746 13.8642 104.731 13.1436C104.726 12.7344 104.731 12.33 104.731 11.9011C104.731 9.74682 104.756 6.42597 104.731 5.38193C104.696 4.11486 104.357 1.01213 102.427 2.1101C101.398 2.80613 101.153 4.23985 101.182 5.33291C101.182 7.26415 101.177 22.1651 101.177 23.9444C101.281 26.6304 98.4604 28.7921 95.9191 27.7578C92.4276 26.4172 93.556 22.3611 93.3778 19.3319C93.2689 18.0306 93.6822 16.538 93.0289 15.3053C92.2964 14.2857 90.9751 14.6607 89.7353 14.5896H84.0143C82.4083 14.7955 82.532 13.3225 82.2277 12.0922C80.3075 2.65173 70.5554 -1.64209 64.8294 6.01669C63.4264 7.81068 62.4613 10.1218 61.9442 12.4133C61.8304 12.7638 61.7363 13.1632 61.432 13.3691C60.4669 13.6951 58.9302 13.4573 57.9899 13.5064C57.6955 13.4769 57.3292 13.472 57.2278 13.1804C57.0843 11.5237 57.2278 6.38431 57.1832 5.03391V4.95058C57.2426 0.546481 53.422 1.3626 53.4913 5.20792C53.4764 7.24209 53.5012 22.0891 53.4863 23.9909C53.5556 26.0006 51.915 27.9735 49.8241 28.047C47.4312 28.2676 45.4269 25.9418 45.6842 23.5865C45.709 22.2999 45.6694 19.8956 45.6842 18.4325C45.6248 17.4963 45.8624 16.2047 45.3848 15.4229C44.8082 14.5798 44.1055 14.6288 43.0118 14.6386H38.0207C36.8255 14.6092 35.9767 14.6631 35.1701 15.5013C34.2396 16.5258 34.3584 18.3835 35.613 19.0599C37.2338 19.7755 39.6786 19.2363 41.4033 19.4104C42.7767 19.5133 42.6282 20.474 42.6282 21.7705C42.6876 23.4762 42.4896 25.1502 42.7717 26.8167C43.5537 30.8679 47.6465 31.9904 51.2989 31.385C54.1594 30.9561 56.4434 28.7136 56.916 25.8805C57.156 24.0767 56.9902 21.5254 57.0348 19.702C57.0397 18.8883 57.01 18.5599 57.6757 18.4938C58.6011 18.4447 60.0042 18.4349 60.89 18.4938C61.3627 18.5624 61.4715 19.0354 61.6076 19.7657C62.642 26.6059 67.2446 31.6914 72.6118 31.2625C77.8503 30.7699 81.0944 25.7923 82.1485 20.9887C82.4133 19.4667 82.7251 19.6481 83.9549 19.6579C85.2441 19.6628 87.5033 19.653 88.795 19.6628C89.5027 19.6089 90.1535 20.0476 90.1733 20.7706C90.2723 25.2604 89.2083 30.2699 94.9788 31.6203C99.3215 32.4291 103.998 30.5125 104.52 25.7653C104.674 24.0399 104.55 21.6798 104.59 19.925C104.6 19.2756 104.585 19.1359 105.112 19.1114C106.013 19.0967 107.609 19.0918 108.45 19.1163C108.898 19.1114 109.101 19.4716 109.145 19.8809C109.479 22.2557 110.274 24.7703 111.528 26.7407C117.086 35.7131 127.281 31.6129 129.29 21.5083C129.684 19.4692 129.503 18.9913 131.668 19.1432C132.972 19.1383 133.603 19.2216 134.45 18.7094C135.345 18.158 135.769 16.9792 135.41 15.9939L135.417 16.0013ZM72.003 24.1772C70.9489 24.1772 70.0927 20.8661 70.0927 16.7757C70.0927 12.6853 70.9489 9.37429 72.003 9.37429C73.0572 9.37429 73.9084 12.6902 73.9084 16.7757C73.9084 20.8612 73.0522 24.1772 72.003 24.1772ZM119.392 24.1772C118.338 24.1772 117.487 20.8661 117.487 16.7757C117.487 12.6853 118.338 9.37429 119.392 9.37429C120.446 9.37429 121.303 12.6902 121.303 16.7757C121.303 20.8612 120.446 24.1772 119.392 24.1772Z" fill="#E680B4"/>
<path d="M73.9085 16.7758C73.9085 20.8662 73.0523 24.1773 72.0031 24.1773C70.9539 24.1773 70.0928 20.8662 70.0928 16.7758C70.0928 12.6854 70.949 9.37439 72.0031 9.37439C73.0572 9.37439 73.9085 12.6903 73.9085 16.7758Z" fill="#010101"/>
<path d="M121.302 16.7758C121.302 20.8662 120.446 24.1773 119.392 24.1773C118.338 24.1773 117.487 20.8662 117.487 16.7758C117.487 12.6854 118.338 9.37439 119.392 9.37439C120.446 9.37439 121.302 12.6903 121.302 16.7758Z" fill="#010101"/>
<path d="M73.9085 16.7758C73.9085 20.8662 73.0523 24.1773 72.0031 24.1773C70.9539 24.1773 70.0928 20.8662 70.0928 16.7758C70.0928 12.6854 70.949 9.37439 72.0031 9.37439C73.0572 9.37439 73.9085 12.6903 73.9085 16.7758Z" fill="#F6F4E0"/>
<path d="M121.302 16.7758C121.302 20.8662 120.446 24.1773 119.392 24.1773C118.338 24.1773 117.487 20.8662 117.487 16.7758C117.487 12.6854 118.338 9.37439 119.392 9.37439C120.446 9.37439 121.302 12.6903 121.302 16.7758Z" fill="#F6F4E0"/>
<path d="M31.3991 9.91843C31.3224 12.629 30.6543 15.7857 30.9883 18.5379C31.0922 20.5206 31.7158 21.8955 31.5871 23.7631C31.2382 27.5373 27.9298 30.3778 24.0325 29.9048C21.7188 29.6376 20.2316 28.623 17.9675 27.6892C12.5879 25.1796 6.30761 22.6871 1.95744 20.4005C-0.316633 19.0207 -0.712554 15.5504 1.31654 13.7638C2.61565 12.5604 5.17924 11.7712 7.2207 10.7664C10.9399 9.09986 17.193 6.31084 20.5311 4.8183C24.9926 2.34053 31.1516 4.14923 31.3966 9.8253V9.91843H31.3991Z" fill="#1D3A28"/>
<path d="M173.369 10.7958C173.208 10.9257 173.049 11.0605 172.893 11.1978C167.942 15.5896 168.019 23.0523 172.869 27.5422C173.799 28.4024 174.683 29.297 175.299 30.3851C176.09 31.738 176.444 33.1447 175.269 34.1496C171.97 37.0415 158.041 31.8287 151.722 29.3705C130.5 21.1186 141.005 19.8197 138.347 15.0749C134.61 8.40138 154.679 5.30356 162.664 3.50957C171.847 1.37246 184.38 2.0881 173.443 10.7321L173.369 10.7958Z" fill="#1D3A28"/>
<path d="M140.235 13.9083C141.821 17.0135 138.73 20.0525 142.479 22.067C149.052 26.2236 158.964 30.39 166.989 31.9708C168.18 32.1913 169.56 32.4193 170.731 32.1962C172.841 31.7085 171.072 30.0861 170.016 29.5592C165.411 27.3583 160.37 25.8829 155.562 24.2115C154.322 23.7826 152.942 23.4223 151.89 22.6503C150.239 21.197 153.362 21.224 154.27 21.4102C156.864 21.746 159.821 22.4543 162.374 22.9297C163.426 23.0841 166.626 23.839 166.779 22.3415C165.97 20.3882 160.65 20.1113 158.65 19.6089C156.064 19.1432 153.266 18.6996 150.848 18.1972C149.933 18.0747 146.676 16.9473 148.945 16.217C150.088 15.9523 151.469 16.0675 152.667 16.1508C156.431 16.4669 159.944 17.0061 163.56 17.2733C164.475 17.3223 165.557 17.3492 166.378 16.9939C167.259 16.614 167.341 15.8763 166.544 15.3249C165.69 14.7391 164.458 14.5627 163.411 14.4279C158.868 13.9205 153.966 13.8568 149.341 13.2956C145.147 12.4256 149.024 11.2663 151.039 11.1413C157.324 10.2958 165.057 9.56546 170.656 8.72483C171.54 8.57043 172.614 8.34251 173.242 7.75677C173.675 7.36219 173.797 6.84752 173.529 6.41127C172.245 4.79619 169.088 5.55104 167.209 5.75936C161.169 6.89898 136.993 8.87188 140.213 13.8397L140.237 13.9034L140.235 13.9083Z" fill="#E2EFCE"/>
<path d="M23.493 10.0458C24.1834 9.8473 25.3019 8.72973 25.7844 8.80325C26.4773 8.9601 25.2276 10.3228 24.8911 10.9085C24.6065 11.3398 24.6486 11.7075 24.9604 12.1339C25.3514 12.6731 25.871 13.3691 25.9205 13.6926C25.9898 14.4524 24.5867 13.3422 24.0943 13.0211C23.6365 12.6657 23.1614 12.7074 22.7135 12.9966C22.2582 13.2466 21.2684 14.1387 20.8577 13.8838C20.5706 13.5897 21.5381 12.4035 21.8301 11.9721C22.4587 11.156 21.4936 10.4159 21.1076 9.73211C20.6053 8.9503 20.7042 8.57778 21.4095 8.92334C22.1048 9.19783 22.6764 9.97474 23.4262 10.0507L23.493 10.0434V10.0458Z" fill="#F6F4E0"/>
</g>
<defs>
<clipPath id="clip0_173_510">
<rect width="181" height="35" fill="white"/>
</clipPath>
</defs>
</svg>
