<?xml version="1.0" encoding="UTF-8"?>
<svg id="Layer_1" data-name="Layer 1" xmlns="http://www.w3.org/2000/svg" version="1.1" viewBox="0 0 162 207">
  <defs>
    <style>
      .cls-1 {
        fill: #e3f1ce;
      }

      .cls-1, .cls-2 {
        stroke-width: 0px;
      }

      .cls-2 {
        fill: #1d3a28;
      }
    </style>
  </defs>
  <path class="cls-2" d="M81.5.5L81.7,0c0,.2,0,.3,0,.5h79.9s0,2.8,0,2.8c0,0,0,.1,0,.2l-1.6,125.1c0,3.1-4.1,4.1-5.6,1.4L90.5,15.8l-7.3-10.8,76.6,177.8h-5.4c-47.3,0-66.8-49.1-73-100.6-6.2,51.5-25.6,100.6-73,100.6H3L80.7,2.4l-9,13.4L7.8,130c-1.5,2.7-5.6,1.6-5.6-1.4L.6,3.5c0,0,0-.1,0-.2V.5s80.4,0,80.4,0c0,0,0-.1,0-.2,0,0,0-.2,0-.3l.2.5h.2Z"/>
  <path class="cls-1" d="M78.9,156.7c.7-.4,1.5-.4,2.2,0l72,45.9c1.7,1.1.9,3.7-1.1,3.7H8c-2,0-2.8-2.6-1.1-3.7l72-45.9Z"/>
</svg>