<svg width="416" height="471" viewBox="0 0 416 471" fill="none" xmlns="http://www.w3.org/2000/svg">
<path fill-rule="evenodd" clip-rule="evenodd" d="M208.33 4.29063e-05L208.851 1.21052L209.417 1.21052L209.939 4.30469e-05C209.982 0.402509 210.026 0.806012 210.069 1.21052L210.66 1.21052L215.772 1.21055L412.661 1.21057L415.7 1.21054L415.656 4.03357C415.66 4.10464 415.662 4.17639 415.661 4.24869L411.286 348.804C411.247 351.876 407.165 352.911 405.667 350.229L232.689 40.6375L213.838 12.7904L411.04 470.66L397.06 470.66C275.143 470.66 225.07 344.135 209.134 211.601C193.2 344.135 143.133 470.66 21.2291 470.66L7.25058 470.66L207.245 6.25578L183.971 40.6375L10.9923 350.229C9.49418 352.911 5.41261 351.876 5.37361 348.804L0.998332 4.24865C0.997416 4.17636 0.999064 4.10461 1.00318 4.03353L0.959758 1.2105L3.99809 1.21054L200.887 1.21055L206 1.21052L208.199 1.21052C208.242 0.806012 208.286 0.402509 208.33 4.29063e-05Z" fill="#E780B5"/>
</svg>
